<?xml version="1.0" standalone="no"?>
<!DOCTYPE svg PUBLIC "-//W3C//DTD SVG 20010904//EN"
 "http://www.w3.org/TR/2001/REC-SVG-20010904/DTD/svg10.dtd">
<svg version="1.0" xmlns="http://www.w3.org/2000/svg"
 width="225.000000pt" height="225.000000pt" viewBox="0 0 225.000000 225.000000"
 preserveAspectRatio="xMidYMid meet">
<metadata>
Created by potrace 1.16, written by Peter Selinger 2001-2019
</metadata>
<g transform="translate(0.000000,225.000000) scale(0.100000,-0.100000)"
fill="#000000" stroke="none">
<path d="M855 2046 c-169 -44 -309 -123 -440 -248 -94 -88 -151 -167 -204
-279 -166 -348 -96 -766 174 -1044 39 -39 97 -91 129 -115 111 -81 289 -157
410 -175 46 -7 47 -7 41 16 -3 13 -16 70 -30 126 -14 56 -25 109 -25 118 0 13
27 15 210 15 l210 0 -5 -22 c-3 -13 -18 -76 -34 -140 -33 -137 -38 -131 84
-99 216 56 420 191 551 364 56 74 135 237 159 327 26 98 31 308 10 411 -59
294 -250 536 -530 677 -66 33 -196 76 -264 87 l-43 7 60 -53 c33 -30 61 -57
61 -61 1 -5 -20 -8 -45 -8 -40 0 -45 -2 -39 -17 15 -38 54 -180 61 -220 l6
-42 -246 -3 c-159 -2 -246 1 -246 7 0 9 49 205 65 261 6 18 3 20 -24 16 -63
-9 -65 5 -9 54 76 67 74 64 58 64 -8 -1 -55 -11 -105 -24z m539 -598 c24 -157
4 -664 -30 -780 -5 -17 -26 -18 -249 -18 l-243 0 -6 38 c-31 186 -46 571 -30
731 l7 61 273 0 273 0 5 -32z"/>
</g>
</svg>
